<?xml version="1.0" encoding="UTF-8"?>
<svg id="Layer_1" data-name="Layer 1" xmlns="http://www.w3.org/2000/svg" viewBox="0 0 447.92 57.11">
  <defs>
    <style>
      .cls-1 {
        fill: none;
        stroke: #fff;
        stroke-miterlimit: 10;
      }

      .cls-2 {
        fill: #fff;
        stroke-width: 0px;
      }
    </style>
  </defs>
  <g>
    <g>
      <path class="cls-2" d="m94.05,13.72v28.15h-3.49v-3.19c-1.63,2.28-4.21,3.41-7.17,3.41-5.88,0-10.17-4.14-10.17-10.28s4.29-10.24,10.17-10.24c2.85,0,5.35,1.06,7.02,3.22v-11.08h3.64Zm-3.6,18.1c0-4.29-2.92-7.06-6.75-7.06s-6.79,2.77-6.79,7.06,2.92,7.09,6.79,7.09,6.75-2.81,6.75-7.09Z"/>
      <path class="cls-2" d="m116.89,29.73v12.14h-3.45v-2.66c-1.21,1.82-3.45,2.88-6.6,2.88-4.55,0-7.44-2.43-7.44-5.92,0-3.22,2.09-5.88,8.08-5.88h5.77v-.72c0-3.07-1.78-4.86-5.39-4.86-2.39,0-4.82.83-6.37,2.16l-1.52-2.73c2.09-1.67,5.08-2.58,8.31-2.58,5.5,0,8.61,2.66,8.61,8.16Zm-3.64,5.99v-2.81h-5.61c-3.6,0-4.63,1.4-4.63,3.11,0,2.01,1.67,3.26,4.44,3.26s4.89-1.25,5.8-3.57Z"/>
      <path class="cls-2" d="m134.95,40.69c-1.1.95-2.77,1.4-4.4,1.4-4.06,0-6.37-2.24-6.37-6.3v-11.04h-3.41v-3h3.41v-4.4h3.64v4.4h5.77v3h-5.77v10.89c0,2.16,1.14,3.38,3.15,3.38,1.06,0,2.09-.34,2.85-.95l1.14,2.62Z"/>
      <path class="cls-2" d="m155.28,29.73v12.14h-3.45v-2.66c-1.21,1.82-3.45,2.88-6.6,2.88-4.55,0-7.44-2.43-7.44-5.92,0-3.22,2.09-5.88,8.08-5.88h5.77v-.72c0-3.07-1.78-4.86-5.39-4.86-2.39,0-4.82.83-6.37,2.16l-1.52-2.73c2.09-1.67,5.08-2.58,8.31-2.58,5.5,0,8.61,2.66,8.61,8.16Zm-3.64,5.99v-2.81h-5.61c-3.6,0-4.63,1.4-4.63,3.11,0,2.01,1.67,3.26,4.44,3.26s4.89-1.25,5.8-3.57Z"/>
      <path class="cls-2" d="m170.39,31.81c0-5.99,4.44-10.24,10.62-10.24,3.6,0,6.6,1.48,8.19,4.29l-2.77,1.78c-1.29-1.97-3.26-2.88-5.46-2.88-3.95,0-6.9,2.77-6.9,7.06s2.96,7.09,6.9,7.09c2.2,0,4.17-.91,5.46-2.88l2.77,1.75c-1.59,2.81-4.59,4.32-8.19,4.32-6.18,0-10.62-4.29-10.62-10.28Z"/>
      <path class="cls-2" d="m193.64,13.72h3.64v28.15h-3.64V13.72Z"/>
      <path class="cls-2" d="m203.58,16.11c0-1.33,1.06-2.39,2.47-2.39s2.47,1.02,2.47,2.31c0,1.37-1.02,2.43-2.47,2.43s-2.47-1.02-2.47-2.35Zm.64,5.65h3.64v20.11h-3.64v-20.11Z"/>
      <path class="cls-2" d="m233.9,30.3v11.57h-3.64v-11.15c0-3.95-1.97-5.88-5.43-5.88-3.87,0-6.37,2.31-6.37,6.68v10.36h-3.64v-20.11h3.49v3.04c1.48-2.05,4.06-3.22,7.25-3.22,4.89,0,8.35,2.81,8.35,8.73Z"/>
      <path class="cls-2" d="m239.25,16.11c0-1.33,1.06-2.39,2.47-2.39s2.47,1.02,2.47,2.31c0,1.37-1.02,2.43-2.47,2.43s-2.47-1.02-2.47-2.35Zm.64,5.65h3.64v20.11h-3.64v-20.11Z"/>
      <path class="cls-2" d="m248.62,31.81c0-5.99,4.44-10.24,10.62-10.24,3.6,0,6.6,1.48,8.19,4.29l-2.77,1.78c-1.29-1.97-3.26-2.88-5.46-2.88-3.95,0-6.9,2.77-6.9,7.06s2.96,7.09,6.9,7.09c2.2,0,4.17-.91,5.46-2.88l2.77,1.75c-1.59,2.81-4.59,4.32-8.19,4.32-6.18,0-10.62-4.29-10.62-10.28Z"/>
    </g>
    <g>
      <path class="cls-2" d="m20.61,13.53h14.62c.52,0,1.04.03,1.55.09C34.55,5.76,27.32,0,18.75,0,8.39,0,0,8.39,0,18.75s8.39,18.75,18.75,18.75c.63,0,1.25-.04,1.86-.1V13.53Z"/>
      <path class="cls-2" d="m46.41,13.14c-1.94,0-3.72.64-5.16,1.72,4.86,2.27,8.23,7.2,8.23,12.92,0,.7-.05,1.38-.15,2.05,3.31-1.2,5.68-4.36,5.68-8.08,0-4.75-3.85-8.6-8.6-8.6Z"/>
      <path class="cls-2" d="m35.23,42.03h-12.23c0,.21-.02.43-.02.65,0,7.97,6.46,14.43,14.43,14.43s14.43-6.46,14.43-14.43c0-3.59-1.31-6.86-3.48-9.38-2.16,5.13-7.23,8.74-13.14,8.74Z"/>
    </g>
  </g>
  <line class="cls-1" x1="311.04" y1="5.85" x2="311.04" y2="51.26"/>
  <g>
    <path class="cls-2" d="m376.45,14.19v3.09h-8.78v24.08h-3.68v-24.08h-8.82v-3.09h21.28Z"/>
    <path class="cls-2" d="m384.35,30.03v11.34h-3.66V14.19h7.68c1.72,0,3.21.17,4.46.52,1.25.35,2.29.85,3.1,1.51s1.42,1.45,1.81,2.38c.39.93.59,1.97.59,3.12,0,.96-.15,1.86-.46,2.69-.3.83-.74,1.58-1.32,2.25-.58.66-1.28,1.23-2.11,1.7s-1.77.82-2.82,1.06c.46.27.86.65,1.21,1.16l7.93,10.79h-3.26c-.67,0-1.16-.26-1.48-.78l-7.06-9.71c-.22-.3-.45-.52-.7-.65s-.63-.2-1.14-.2h-2.79Zm0-2.67h3.85c1.07,0,2.02-.13,2.83-.39.82-.26,1.5-.63,2.05-1.1.55-.47.96-1.04,1.24-1.7.28-.66.42-1.38.42-2.18,0-1.62-.53-2.84-1.6-3.66-1.07-.82-2.66-1.23-4.77-1.23h-4.02v10.26Z"/>
    <path class="cls-2" d="m421.49,14.19v3h-13.05v9.03h10.56v2.88h-10.56v9.27h13.05v3h-16.75V14.19h16.75Z"/>
    <path class="cls-2" d="m445.93,35.76c.2,0,.39.08.55.25l1.44,1.57c-1.11,1.29-2.46,2.29-4.05,3.02-1.59.72-3.5,1.08-5.74,1.08-1.96,0-3.74-.34-5.33-1.01-1.59-.68-2.95-1.62-4.08-2.84-1.13-1.22-2-2.68-2.62-4.39-.62-1.71-.93-3.58-.93-5.63s.33-3.93,1-5.63c.66-1.71,1.6-3.17,2.8-4.4,1.2-1.23,2.64-2.18,4.31-2.85,1.67-.68,3.52-1.01,5.55-1.01s3.72.31,5.17.93,2.73,1.46,3.86,2.52l-1.19,1.69c-.09.13-.19.23-.3.31s-.28.12-.49.12c-.16,0-.34-.06-.52-.18-.18-.12-.4-.27-.65-.45s-.55-.37-.89-.57c-.34-.2-.75-.39-1.21-.57-.47-.18-1.01-.33-1.63-.45-.62-.12-1.33-.18-2.14-.18-1.45,0-2.79.25-3.99.75-1.21.5-2.25,1.21-3.12,2.13-.87.92-1.55,2.05-2.04,3.38-.49,1.33-.73,2.81-.73,4.46s.24,3.21.73,4.53c.49,1.33,1.15,2.45,1.99,3.37s1.84,1.62,2.99,2.1c1.15.48,2.39.72,3.72.72.81,0,1.54-.05,2.18-.14s1.24-.24,1.79-.45c.55-.2,1.06-.46,1.54-.77s.95-.68,1.43-1.11c.21-.19.42-.28.63-.28Z"/>
  </g>
</svg>