<svg width="55" height="58" viewBox="0 0 55 58" fill="none" xmlns="http://www.w3.org/2000/svg">
<path d="M20.61 13.53H35.23C35.75 13.53 36.27 13.56 36.78 13.62C34.55 5.76 27.32 0 18.75 0C8.39 0 0 8.39 0 18.75C0 29.11 8.39 37.5 18.75 37.5C19.38 37.5 20 37.46 20.61 37.4V13.53Z" fill="white"/>
<path d="M46.41 13.14C44.47 13.14 42.69 13.78 41.25 14.86C46.11 17.13 49.48 22.06 49.48 27.78C49.48 28.48 49.43 29.16 49.33 29.83C52.64 28.63 55.01 25.47 55.01 21.75C55.01 17 51.16 13.15 46.41 13.15V13.14Z" fill="white"/>
<path d="M35.23 42.03H23C23 42.24 22.98 42.46 22.98 42.68C22.98 50.65 29.44 57.11 37.41 57.11C45.38 57.11 51.84 50.65 51.84 42.68C51.84 39.09 50.53 35.82 48.36 33.3C46.2 38.43 41.13 42.04 35.22 42.04L35.23 42.03Z" fill="white"/>
</svg>
